<?xml version="1.0" encoding="UTF-8"?>
<svg width="251px" height="50px" viewBox="0 0 251 50" version="1.1" xmlns="http://www.w3.org/2000/svg" xmlns:xlink="http://www.w3.org/1999/xlink">
    <!-- Generator: Sketch 43.1 (39012) - http://www.bohemiancoding.com/sketch -->
    <title>Group</title>
    <desc>Created with Sketch.</desc>
    <defs></defs>
    <g id="Page-1" stroke="none" stroke-width="1" fill="none" fill-rule="evenodd">
        <g id="Artboard" transform="translate(-143.000000, -114.000000)">
            <g id="Group" transform="translate(143.000000, 114.000000)">
                <g id="test" fill-rule="nonzero" fill="#FFFFFF">
                    <path d="M0,0 L126,0 L126,50 L0,50 L0,0 Z M17.0164823,10.8039699 L14.0633573,29.0098852 L13.8292683,31.5569194 C13.8292683,33.9245974 14.5375312,35.7660969 15.954078,37.0814735 C17.3346103,38.3729337 19.225312,39.0186541 21.6262384,39.0186541 C23.1868406,39.0186541 24.7354155,38.7794985 26.2720085,38.3011796 C29.9694355,37.1532148 32.2262727,34.0322321 33.0425878,28.9381378 L35.9596988,10.8039699 L28.3608042,10.8039699 L25.3356518,29.7452964 C25.0955588,31.2161265 24.3332762,31.9515306 23.0487805,31.9515306 C22.052396,31.9515306 21.554211,31.3536413 21.554211,30.1578444 L24.5613567,10.8039699 L17.0164823,10.8039699 Z M41.3057354,38.4984852 L48.5805067,38.4984852 L49.2647677,34.1936383 C49.7569575,31.1084827 50.0150531,29.4343923 50.0390622,29.1713168 L50.4532201,24.9023439 C50.5492572,23.9098327 50.597275,23.1026816 50.597275,22.4808673 L50.6693025,22.4808673 L53.7304689,38.4984852 L60.9692262,38.4984852 L65.3448933,10.7142857 L58.1601561,10.7142857 C57.7640034,13.3091648 57.4518876,15.2523056 57.2237994,16.5437658 L56.773628,19.6109694 C56.7136049,20.0175403 56.6775915,20.3344219 56.6655866,20.561623 C56.6415775,21.0758158 56.6295732,21.4405281 56.6295732,21.6557714 L56.4314976,24.9561541 L56.3954841,25.9785556 C56.371475,26.6601597 56.3594701,27.14445 56.3594701,27.4314413 L56.2874427,27.4314413 L52.8841463,10.7142857 L45.7714366,10.7142857 L41.3057354,38.4984852 Z M70.9970464,38.4984852 L78.5599275,38.4984852 L82.9536012,10.7142857 L75.3907201,10.7142857 L70.9970464,38.4984852 Z M88.5877476,38.4984852 L96.1506287,38.4984852 L98.1493902,25.6377551 L100.90444,38.4984852 L108.953506,38.4984852 L104.487805,24.2028061 L112.626905,10.8039699 L104.703887,10.8039699 L98.6535823,22.6243622 L100.544302,10.8039699 L92.9814214,10.8039699 L88.5877476,38.4984852 Z" id="Combined-Shape"></path>
                </g>
                <rect id="Rectangle" stroke="#FFFFFF" x="125.5" y="0.5" width="125" height="49"></rect>
                <path d="M152.957,18.256 L154.685,18.256 L154.685,29.38 L160.535,29.38 L160.535,31 L152.957,31 L152.957,18.256 Z M176.295,18.256 L177.861,18.256 L183.315,31 L181.299,31 L180.021,27.85 L173.955,27.85 L172.695,31 L170.679,31 L176.295,18.256 Z M179.391,26.338 L177.015,20.488 L176.979,20.488 L174.567,26.338 L179.391,26.338 Z M194.971,18.256 L199.399,18.256 C199.951003,18.256 200.463998,18.3219993 200.938,18.454 C201.412002,18.5860007 201.819998,18.7809987 202.162,19.039 C202.504002,19.2970013 202.773999,19.626998 202.972,20.029 C203.170001,20.431002 203.269,20.9019973 203.269,21.442 C203.269,22.1740037 203.065002,22.7709977 202.657,23.233 C202.248998,23.6950023 201.721003,24.0339989 201.073,24.25 L201.073,24.286 C201.457002,24.3100001 201.816998,24.4089991 202.153,24.583 C202.489002,24.7570009 202.779999,24.9849986 203.026,25.267 C203.272001,25.5490014 203.466999,25.8759981 203.611,26.248 C203.755001,26.6200019 203.827,27.0219978 203.827,27.454 C203.827,28.0300029 203.710001,28.5369978 203.476,28.975 C203.241999,29.4130022 202.921002,29.7819985 202.513,30.082 C202.104998,30.3820015 201.631003,30.6099992 201.091,30.766 C200.550997,30.9220008 199.969003,31 199.345,31 L194.971,31 L194.971,18.256 Z M196.699,23.548 L199.057,23.548 C199.381002,23.548 199.686999,23.5150003 199.975,23.449 C200.263001,23.3829997 200.514999,23.2720008 200.731,23.116 C200.947001,22.9599992 201.117999,22.7620012 201.244,22.522 C201.370001,22.2819988 201.433,21.9880017 201.433,21.64 C201.433,21.1359975 201.271002,20.6980019 200.947,20.326 C200.622998,19.9539981 200.113003,19.768 199.417,19.768 L196.699,19.768 L196.699,23.548 Z M196.699,29.488 L199.237,29.488 C199.501001,29.488 199.791998,29.4610003 200.11,29.407 C200.428002,29.3529997 200.724999,29.2450008 201.001,29.083 C201.277001,28.9209992 201.510999,28.7020014 201.703,28.426 C201.895001,28.1499986 201.991,27.7840023 201.991,27.328 C201.991,26.5719962 201.745002,26.0050019 201.253,25.627 C200.760998,25.2489981 200.095004,25.06 199.255,25.06 L196.699,25.06 L196.699,29.488 Z M216.689,28.336 C217.001002,28.8040023 217.399998,29.1489989 217.886,29.371 C218.372002,29.5930011 218.872997,29.704 219.389,29.704 C219.677001,29.704 219.970998,29.6590005 220.271,29.569 C220.571001,29.4789996 220.843999,29.3440009 221.09,29.164 C221.336001,28.9839991 221.536999,28.7620013 221.693,28.498 C221.849001,28.2339987 221.927,27.9280017 221.927,27.58 C221.927,27.0879975 221.771002,26.7130013 221.459,26.455 C221.146998,26.1969987 220.760002,25.9810009 220.298,25.807 C219.835998,25.6329991 219.332003,25.4650008 218.786,25.303 C218.239997,25.1409992 217.736002,24.9160014 217.274,24.628 C216.811998,24.3399986 216.425002,23.9530024 216.113,23.467 C215.800998,22.9809976 215.645,22.3240041 215.645,21.496 C215.645,21.1239981 215.725999,20.7280021 215.888,20.308 C216.050001,19.8879979 216.304998,19.5040017 216.653,19.156 C217.001002,18.8079983 217.447997,18.5170012 217.994,18.283 C218.540003,18.0489988 219.196996,17.932 219.965,17.932 C220.661003,17.932 221.326997,18.027999 221.963,18.22 C222.599003,18.412001 223.156998,18.8019971 223.637,19.39 L222.233,20.668 C222.016999,20.3319983 221.711002,20.062001 221.315,19.858 C220.918998,19.653999 220.469003,19.552 219.965,19.552 C219.484998,19.552 219.086002,19.6149994 218.768,19.741 C218.449998,19.8670006 218.195001,20.028999 218.003,20.227 C217.810999,20.425001 217.676,20.6379989 217.598,20.866 C217.52,21.0940011 217.481,21.303999 217.481,21.496 C217.481,22.0360027 217.636998,22.4499986 217.949,22.738 C218.261002,23.0260014 218.647998,23.2599991 219.11,23.44 C219.572002,23.6200009 220.075997,23.7819993 220.622,23.926 C221.168003,24.0700007 221.671998,24.2709987 222.134,24.529 C222.596002,24.7870013 222.982998,25.1349978 223.295,25.573 C223.607002,26.0110022 223.763,26.6139962 223.763,27.382 C223.763,27.9940031 223.646001,28.5459975 223.412,29.038 C223.177999,29.5300025 222.863002,29.9439983 222.467,30.28 C222.070998,30.6160017 221.603003,30.8739991 221.063,31.054 C220.522997,31.2340009 219.947003,31.324 219.335,31.324 C218.518996,31.324 217.745004,31.1800014 217.013,30.892 C216.280996,30.6039986 215.699002,30.160003 215.267,29.56 L216.689,28.336 Z" id="LABS" fill="#FFFFFF"></path>
            </g>
        </g>
    </g>
</svg>